<?xml version="1.0" encoding="UTF-8"?>
<svg id="Layer_1" xmlns="http://www.w3.org/2000/svg" version="1.1" viewBox="0 0 135.82 141.75">
  <!-- Generator: Adobe Illustrator 30.3.0, SVG Export Plug-In . SVG Version: 2.1.3 Build 182)  -->
  <defs>
    <style>
      .st0 {
        fill: #f5f5f5;
      }
    </style>
  </defs>
  <path class="st0" d="M124.94,21.61c-.46-2.97-2.93-4.89-6.29-4.9l-12.49-.03c-.08-1.43-.55-2.8-1.37-3.85-.99-1.27-2.41-1.97-4-1.97l-31.95-.08-3.29-6.63c-.74-1.48-1.78-3.12-3.97-4.02l-.33-.14h-27.02s-.3.11-.3.11c-2.72.99-4.28,3.28-4.27,6.28l.03,10.33h-13.06c-2.85.01-5.32,2.11-5.75,4.88L.02,92.17l-.02.14v43.56c0,3.28,2.46,5.75,5.9,5.88h124.08c3.38-.13,5.83-2.6,5.83-5.88v-43.56s-10.87-70.69-10.87-70.69ZM59.39,50h.1s40.36,0,40.36,0v15.29s-41.79,0-41.79,0l-3.66-7.33c-1.04-2.16-3.14-3.47-5.44-3.47-.07,0-.13,0-.2,0h-12.77s0-15.29,0-15.29h14.78s3.81,7.57,3.81,7.57c1,1.84,2.71,2.98,4.81,3.21ZM116.93,86.89v-15.75c0-1.7-.69-3.24-1.96-4.33-.94-.81-2.14-1.32-3.44-1.49v-21.15c0-1.71-.69-3.25-1.95-4.34-.94-.81-2.14-1.32-3.44-1.49v-9.91h8.03s8.99,58.46,8.99,58.46h-6.23ZM54.73,76.99h50.51s0,9.89,0,9.89h-18.31s0,0,0,0c-2.35,0-4.36,1.23-5.39,3.28l-3.76,7.51h-19.7s-3.81-7.55-3.81-7.55c-.96-1.82-2.7-2.99-4.79-3.23h-.1s-18.8,0-18.8,0v-20.69s14.78,0,14.78,0l3.81,7.57c1.15,2.12,3.18,3.3,5.55,3.23ZM54.43,109.37h27.01c2.27-.06,4.19-1.28,5.27-3.33l3.73-7.46h33.69s0,31.48,0,31.48H11.7v-31.48s33.66,0,33.66,0l3.81,7.55c1.05,2,2.95,3.18,5.26,3.25ZM63.45,38.32l-3.78-7.57c-1.05-1.96-3-3.16-5.25-3.22h-13.04s0-15.83,0-15.83h14.78s3.81,7.56,3.81,7.56c.99,1.84,2.69,2.99,4.8,3.22h.1s29.58,0,29.58,0v15.83s-30.99,0-30.99,0ZM12.67,86.88l8.99-58.45h5.38c-.25.14-.49.31-.71.49-1.29,1.05-2,2.54-2,4.19l-.04,21.41c-1.21.15-2.31.59-3.21,1.3-1.26.99-2.01,2.41-2.18,4.1v26.97s-6.24,0-6.24,0Z"/>
</svg>