<?xml version="1.0" encoding="UTF-8"?>
<svg id="Layer_1" xmlns="http://www.w3.org/2000/svg" version="1.1" viewBox="0 0 110.14 136.57">
  <!-- Generator: Adobe Illustrator 30.3.0, SVG Export Plug-In . SVG Version: 2.1.3 Build 182)  -->
  <defs>
    <style>
      .st0 {
        fill: #f5f5f5;
      }
    </style>
  </defs>
  <path class="st0" d="M95.43,40.72c-4.29.2-7.1,3.52-6.98,8.28.38,15.54.4,26.94.05,38.06l-1.92,29.03c-.19,2.9-2.36,5.97-6.01,5.98l-50.75.02h0c-3.4,0-6.03-2.52-6.26-6l-1.92-28.95c-.43-13.83-.22-27.11.05-38.28.06-2.41-.72-4.56-2.19-6.06-1.34-1.36-3.12-2.08-5.16-2.08h-.03c-4.16.01-7.3,3.36-7.29,7.78l.05,39.11c.47,12.08,1.15,21.69,2.22,31.15,1.13,10,10.07,17.82,20.36,17.82h50.82s0,0,0,0c10.29,0,19.23-7.83,20.35-17.83,1.07-9.48,1.75-19.08,2.22-31.23l.05-39.03c0-2.29-.83-4.35-2.36-5.81-1.42-1.36-3.3-2.05-5.33-1.96Z"/>
  <path class="st0" d="M108.08,22.53c-1.29-1.36-3.01-2.12-4.83-2.13l-16.5-.06-4.57-8.59c-3.92-7.36-11.03-11.76-19.03-11.76h-.02l-16.41.02c-7.85.05-14.89,4.51-18.84,11.93l-4.46,8.4-16.35.03c-1.88,0-3.66.78-5,2.19S-.09,25.98,0,27.91c.19,3.97,3.37,6.96,7.38,6.96h95.37c4.01,0,7.18-2.99,7.37-6.95.1-1.92-.67-3.94-2.06-5.4ZM69.13,18.27l1.07,2.07h-30.27s1.08-2.05,1.08-2.05c1.26-2.4,3.39-3.78,5.84-3.78h16.45c2.46,0,4.59,1.37,5.83,3.76Z"/>
</svg>