<?xml version="1.0" encoding="UTF-8"?>
<svg xmlns="http://www.w3.org/2000/svg" viewBox="0 0 64 64" aria-hidden="true">
  <path fill="#212121" d="M25.2 8.1c-4.5 0-8.2 3.4-8.7 7.8A9.5 9.5 0 0 0 10 29.5c-2.7 2-4.4 5.2-4.4 8.7 0 5.9 4.7 10.8 10.6 11 .9 3.8 4.3 6.7 8.4 6.7 4.8 0 8.7-3.9 8.7-8.7V16.2c0-4.5-3.6-8.1-8.1-8.1Zm-1.1 5.8c1.8 0 3.3 1.5 3.3 3.3v3.1c-3.9.4-7.1 3.1-8.2 6.8-.3 1 .3 2 1.3 2.3s2-.3 2.3-1.3c.7-2.5 3-4.2 5.6-4.2h-1v8.5c-3.1.2-5.9 1.7-7.8 4.1-.7.8-.5 2 .3 2.7.8.7 2 .5 2.7-.3 1.4-1.7 3.4-2.7 5.6-2.7h-.8v11c0 2.7-2.2 4.9-4.9 4.9-2.6 0-4.8-2.1-4.9-4.7-.1-1-.9-1.8-1.9-1.8h-.2c-3.5 0-6.3-2.9-6.3-6.4 0-2.4 1.3-4.5 3.4-5.6 1-.5 1.3-1.8.7-2.7-.8-1.2-1.2-2.6-1.2-4 0-3.6 2.7-6.7 6.2-7.1 1-.1 1.7-.9 1.7-1.9.1-2.2 1.9-4 4.1-4Z"/>
  <path fill="#212121" d="M38.8 8.1c4.5 0 8.2 3.4 8.7 7.8A9.5 9.5 0 0 1 54 29.5c2.7 2 4.4 5.2 4.4 8.7 0 5.9-4.7 10.8-10.6 11-.9 3.8-4.3 6.7-8.4 6.7-4.8 0-8.7-3.9-8.7-8.7V16.2c0-4.5 3.6-8.1 8.1-8.1Zm1.1 5.8c-1.8 0-3.3 1.5-3.3 3.3v3.1c3.9.4 7.1 3.1 8.2 6.8.3 1-.3 2-1.3 2.3s-2-.3-2.3-1.3c-.7-2.5-3-4.2-5.6-4.2h1v8.5c3.1.2 5.9 1.7 7.8 4.1.7.8.5 2-.3 2.7-.8.7-2 .5-2.7-.3-1.4-1.7-3.4-2.7-5.6-2.7h.8v11c0 2.7 2.2 4.9 4.9 4.9 2.6 0 4.8-2.1 4.9-4.7.1-1 .9-1.8 1.9-1.8h.2c3.5 0 6.3-2.9 6.3-6.4 0-2.4-1.3-4.5-3.4-5.6-1-.5-1.3-1.8-.7-2.7.8-1.2 1.2-2.6 1.2-4 0-3.6-2.7-6.7-6.2-7.1-1-.1-1.7-.9-1.7-1.9-.1-2.2-1.9-4-4.1-4Z"/>
  <path fill="#212121" d="M31.8 10.7c1.1 0 1.9.8 1.9 1.9v38.8c0 1.1-.8 1.9-1.9 1.9s-1.9-.8-1.9-1.9V12.6c0-1.1.8-1.9 1.9-1.9Z"/>
</svg>
