<?xml version="1.0" encoding="UTF-8"?>
<svg id="Layer_1" xmlns="http://www.w3.org/2000/svg" version="1.1" viewBox="0 0 138.38 146.77">
  <!-- Generator: Adobe Illustrator 30.3.0, SVG Export Plug-In . SVG Version: 2.1.3 Build 182)  -->
  <defs>
    <style>
      .st0 {
        fill: #f5f5f5;
      }
    </style>
  </defs>
  <path class="st0" d="M131.26,83.01c-3.52-2.06-5.6-5.7-5.57-9.73.03-3.94,2.18-7.55,5.75-9.66,5.94-3.51,8.47-10.68,6.01-17.05-2.73-7.06-6.31-13.26-10.96-18.97-4.24-5.22-11.6-6.63-17.49-3.35-3.97,2.21-8.14,2.25-11.72.12-3.32-1.98-5.39-5.67-5.4-9.62-.01-6.98-4.94-12.82-11.73-13.88-7.61-1.19-15.08-1.16-22.21.09-6.74,1.18-11.47,6.97-11.48,14.08,0,3.8-2.16,7.49-5.49,9.41-3.55,2.05-7.67,1.98-11.59-.19-5.89-3.27-13.24-1.86-17.48,3.35-4.51,5.54-8.08,11.67-10.9,18.72-2.59,6.48-.09,13.76,5.94,17.31,3.56,2.1,5.71,5.71,5.74,9.65.03,4.03-2.05,7.67-5.56,9.72-6.13,3.59-8.7,10.93-6.11,17.44,2.83,7.11,6.39,13.23,10.89,18.73,4.25,5.2,11.6,6.6,17.48,3.34,3.98-2.21,8.14-2.25,11.72-.12,3.25,1.94,5.36,5.6,5.35,9.31,0,7.24,5.07,13.23,12.06,14.24,3.69.54,7.26.81,10.76.81,3.75,0,7.41-.31,11.04-.93,6.66-1.13,11.52-6.94,11.56-13.81.02-3.97,2.09-7.66,5.41-9.63,3.59-2.14,7.75-2.09,11.73.12,5.81,3.24,13.09,1.9,17.31-3.19,4.53-5.45,8.14-11.63,11.05-18.88,2.61-6.51.04-13.85-6.11-17.45ZM117.77,111.55c-.66.84-1.92,1.55-3.28.78-7.36-4.18-16.04-4.12-23.22.16-6.76,4.02-10.97,11.5-10.99,19.51,0,1.31-.92,2.32-2.27,2.51-6.03.85-11.83.86-17.71,0-1.64-.24-2.23-1.66-2.23-2.8-.02-7.75-4.13-15.07-10.74-19.09-3.7-2.26-7.8-3.39-11.91-3.39-3.87,0-7.75,1.01-11.32,3.02-1.22.69-2.54.47-3.36-.56-3.81-4.81-6.83-10.09-8.99-15.71-.49-1.27.33-2.45,1.36-3.05,6.84-4.02,11.12-11.45,11.18-19.38.06-8.08-4.22-15.62-11.17-19.69-1.42-.83-1.85-2.21-1.16-3.78,2.52-5.8,5.35-10.66,8.66-14.85.91-1.16,2.22-1.42,3.49-.7,7.25,4.1,15.85,4.01,23.01-.24,6.73-4,10.93-11.36,10.95-19.22,0-1.55.93-2.64,2.42-2.84,6.17-.82,11.93-.81,17.61.03,1.29.19,2.19,1.23,2.19,2.51.02,7.92,4.15,15.35,10.78,19.39,7.2,4.38,15.89,4.52,23.23.36,1.21-.69,2.53-.46,3.36.57,3.58,4.48,6.49,9.5,8.88,15.35.65,1.59-.22,2.81-1.26,3.41-6.84,4-11.13,11.43-11.18,19.38-.06,8.07,4.23,15.61,11.18,19.69,1.38.81,1.84,2.16,1.22,3.61-2.44,5.76-5.3,10.68-8.72,15.03Z"/>
  <path class="st0" d="M67.91,44.64c-7.76.35-14.89,3.71-20.08,9.45-5.19,5.75-7.82,13.17-7.39,20.89.84,15.27,13.6,27.21,28.75,27.21.44,0,.89-.01,1.34-.03,15.85-.73,28.15-14.22,27.43-30.05-.73-15.86-14.17-28.2-30.04-27.46ZM70.16,90.56c-9.37.52-17.51-6.68-18.12-16.06-.3-4.61,1.22-9.06,4.29-12.53,3.05-3.45,7.29-5.48,11.93-5.74h0c9.45-.52,17.56,6.76,18.09,16.22.26,4.57-1.29,8.98-4.36,12.4-3.06,3.42-7.27,5.45-11.84,5.7Z"/>
</svg>